<?xml version="1.0" encoding="UTF-8"?><svg xmlns="http://www.w3.org/2000/svg" xmlns:xlink="http://www.w3.org/1999/xlink" height="479.4" preserveAspectRatio="xMidYMid meet" version="1.0" viewBox="87.0 23.0 337.7 479.4" width="337.7" zoomAndPan="magnify"><g data-name="Pig" id="change1_1"><path d="M257.49,23A162.39,162.39,0,0,0,111.95,257.4L224,483.82h0a33.2,33.2,0,0,0,29.78,18.57h.14a33.19,33.19,0,0,0,29.79-18.33L399.77,254.28A159.4,159.4,0,0,0,257.49,23ZM383.7,246.17,267.62,475.95a15.1,15.1,0,0,1-13.72,8.44h-.07a15.1,15.1,0,0,1-13.72-8.56l-112-226.41A144.39,144.39,0,0,1,257.49,41,141.4,141.4,0,0,1,383.7,246.17Z" fill="inherit"/><path d="M256,89a84.5,84.5,0,1,0,84.5,84.5A84.6,84.6,0,0,0,256,89Zm0,159a74.5,74.5,0,1,1,74.5-74.5A74.58,74.58,0,0,1,256,248Z" fill="inherit"/></g></svg>